<svg xmlns="http://www.w3.org/2000/svg" viewBox="0 0 6820 6030" width="256" height="256">
<style>
  g { fill: #1c1c27; }
  @media (prefers-color-scheme: dark) {
    g { fill: #ffffff; }
  }
</style>
<g transform="translate(0,6030) scale(1,-1)" stroke="none">
  <path d="M2540 5810 c-23 -23 -26 -68 -7 -93 8 -12 137 -50 407 -122 480 -126
721 -191 1580 -420 366 -97 732 -195 813 -216 82 -21 153 -41 158 -44 11 -7
12 -1274 1 -1291 -9 -14 -89 -64 -102 -64 -7 0 -10 207 -10 624 0 585 -1 625
-18 646 -13 17 -58 33 -177 65 -88 24 -295 80 -460 124 -165 45 -419 113 -565
152 -146 39 -303 81 -350 94 -83 23 -619 167 -995 267 -386 103 -487 127 -503
121 -32 -11 -52 -36 -52 -63 0 -64 -42 -50 920 -305 69 -18 195 -52 280 -75
85 -24 193 -53 240 -65 145 -39 371 -100 720 -195 184 -49 439 -118 566 -151
l231 -61 5 -87 c4 -73 3 -888 -1 -1123 l-1 -76 -50 -31 -50 -31 0 616 c0 688
2 665 -68 683 -145 37 -513 135 -757 201 -311 85 -605 164 -1185 320 -201 54
-482 130 -625 168 -423 115 -413 112 -442 101 -55 -21 -69 -74 -30 -113 16
-15 50 -30 98 -40 41 -10 205 -52 364 -96 160 -43 369 -99 465 -125 96 -25
238 -64 315 -85 197 -54 521 -142 1430 -386 132 -35 248 -67 258 -70 16 -5 17
-44 17 -640 l0 -634 -41 -25 c-22 -15 -47 -29 -55 -32 -12 -4 -14 81 -14 605
l0 611 -22 24 c-18 19 -60 34 -183 66 -88 23 -272 73 -410 111 -137 38 -394
107 -570 155 -176 47 -408 110 -515 140 -107 30 -258 70 -335 91 -77 20 -320
85 -540 145 -220 60 -419 112 -442 116 -36 5 -45 2 -67 -20 -50 -50 -24 -105
61 -126 26 -7 239 -64 473 -127 539 -146 1554 -421 1770 -480 220 -60 392
-107 520 -141 l105 -29 3 -621 2 -621 -50 -31 c-28 -17 -55 -31 -60 -31 -7 0
-10 214 -10 603 0 566 -1 605 -18 620 -10 9 -125 45 -257 81 -132 35 -296 80
-365 100 -69 19 -208 57 -310 85 -102 27 -291 79 -420 115 -129 35 -500 137
-825 225 -324 89 -630 173 -678 186 -182 52 -186 48 -201 -202 l-11 -187 -200
-121 c-110 -66 -261 -157 -336 -203 -110 -67 -143 -82 -176 -82 -65 0 -282
-115 -441 -234 l-132 -99 0 -1222 0 -1222 22 -20 c30 -27 498 -176 524 -167
10 4 33 18 51 31 l32 23 893 -296 c491 -162 1106 -366 1366 -452 l472 -157 0
-41 c0 -28 6 -47 20 -59 23 -21 483 -174 524 -175 19 0 83 34 195 104 91 57
199 122 239 146 l72 42 0 47 0 46 143 86 c78 47 329 202 557 344 228 142 485
300 570 353 l155 95 43 -12 c23 -6 51 -11 61 -11 10 0 108 59 216 130 109 72
202 130 206 130 5 0 15 13 24 30 13 25 15 174 15 1239 0 1031 -2 1212 -14
1224 -14 14 -266 99 -426 143 -47 13 -105 24 -130 24 -43 0 -109 16 -307 76
l-83 25 0 265 c0 261 0 265 -22 287 -23 23 -25 23 -1263 352 -170 45 -440 117
-600 160 -159 43 -312 83 -340 90 -27 7 -222 58 -431 114 -210 56 -393 101
-408 101 -14 0 -35 -9 -46 -20z m-680 -919 c102 -27 392 -107 645 -176 253
-70 489 -135 525 -145 249 -68 585 -160 750 -205 107 -30 278 -77 380 -104
268 -72 264 -70 269 -106 2 -16 0 -261 -4 -543 l-7 -513 -22 7 c-11 4 -86 26
-166 50 l-145 42 -12 102 c-53 448 -306 811 -698 1001 -377 183 -797 148
-1120 -94 -196 -146 -347 -427 -371 -688 -4 -37 -10 -72 -14 -79 -5 -8 -39 -2
-121 23 l-114 35 2 643 c2 672 6 811 26 804 7 -2 95 -26 197 -54z m-374 -503
c-4 -74 -12 -128 -19 -135 -7 -7 -50 -35 -97 -63 l-85 -51 -85 25 c-47 14
-109 34 -139 44 l-53 18 63 41 c116 73 404 243 413 243 5 0 6 -51 2 -122z
m4270 -107 l56 -18 -75 -46 c-41 -26 -77 -47 -81 -47 -3 0 -6 32 -6 70 0 80
-10 76 106 41z m489 -108 c66 -19 122 -36 124 -38 4 -4 -107 -76 -192 -124
l-58 -33 -150 46 c-82 25 -151 46 -154 46 -31 0 82 78 199 137 44 23 30 25
231 -34z m-2892 -39 c29 -15 79 -46 112 -69 72 -51 238 -221 232 -238 -4 -12
-334 -206 -353 -207 -5 0 -26 16 -45 36 -18 19 -55 49 -81 66 -27 17 -48 39
-48 48 0 21 119 390 126 390 2 0 28 -12 57 -26z m-2410 -36 c59 -17 107 -33
106 -37 0 -3 -70 -50 -155 -103 l-154 -97 -138 40 c-75 23 -141 44 -145 48 -5
5 16 24 45 43 74 48 197 123 232 141 33 16 29 16 209 -35z m526 -275 c-1 -126
-4 -237 -7 -249 l-7 -21 -72 20 -73 19 0 187 0 188 73 40 c39 23 75 41 80 42
4 1 7 -101 6 -226z m4981 -141 c0 -291 -2 -320 -17 -334 -19 -16 -221 -138
-228 -138 -3 0 -5 146 -5 324 l0 324 113 70 c61 39 118 71 125 71 9 1 12 -69
12 -317z m-665 247 c60 -17 115 -34 123 -38 15 -9 -30 -41 -169 -124 l-77 -45
-6 30 c-8 41 -8 193 1 201 9 10 6 10 128 -24z m-4645 -134 c2 -131 1 -140 -17
-137 -43 7 -283 86 -283 93 0 4 24 22 53 40 152 95 241 148 243 146 2 -1 4
-66 4 -142z m-635 -19 c61 -18 122 -38 138 -45 l27 -11 0 -320 c0 -290 -2
-320 -16 -320 -9 0 -75 18 -145 40 l-129 41 0 324 c0 179 3 325 8 325 4 0 57
-15 117 -34z m5535 -294 l0 -289 -332 -203 c-183 -111 -360 -219 -393 -240
-33 -21 -161 -100 -285 -175 -124 -76 -267 -164 -319 -196 -52 -33 -98 -59
-103 -59 -4 0 -8 129 -8 288 l0 287 287 175 c158 96 463 283 678 414 377 231
467 286 473 286 1 0 2 -130 2 -288z m-3051 208 c125 -24 243 -112 304 -227 75
-144 70 -291 -15 -409 -29 -41 -36 -45 -63 -40 -16 4 -149 44 -294 90 -184 58
-269 89 -278 102 -25 38 -46 146 -39 203 16 132 110 244 236 277 57 16 84 16
149 4z m-1959 -164 c96 -30 258 -80 360 -111 177 -55 322 -100 640 -198 80
-25 296 -91 480 -147 184 -56 457 -139 605 -185 149 -46 316 -98 373 -115
l102 -32 0 -273 c0 -215 -3 -273 -12 -270 -38 12 -838 263 -1482 465 -407 127
-819 256 -915 286 -97 31 -213 67 -258 82 l-83 25 0 264 c0 145 3 263 8 263 4
0 86 -24 182 -54z m5418 -638 l-3 -323 -110 -67 c-60 -36 -116 -67 -123 -67
-10 -1 -12 65 -10 316 l3 317 115 72 c63 40 118 73 123 73 4 1 6 -144 5 -321z
m-2222 132 c188 -52 184 -39 37 -136 -71 -46 -137 -84 -147 -84 -23 0 -298 82
-292 87 18 18 264 163 276 163 9 0 66 -14 126 -30z m-3678 -42 l122 -39 0
-319 c0 -249 -3 -320 -12 -320 -7 0 -71 19 -143 43 l-130 43 -3 322 -2 323 22
-7 c13 -3 78 -24 146 -46z m5492 -257 l0 -289 -147 -89 c-276 -168 -827 -505
-993 -608 -219 -135 -286 -175 -294 -175 -3 0 -6 128 -6 283 0 258 2 285 18
299 9 8 136 88 282 177 146 89 459 280 695 425 237 146 433 265 438 265 4 1 7
-129 7 -288z m-4952 100 c185 -59 696 -220 2216 -697 147 -46 272 -87 277 -90
5 -3 9 -129 9 -281 l0 -275 -27 6 c-26 6 -395 122 -688 216 -66 21 -435 138
-820 260 -385 122 -814 259 -954 304 l-253 81 -3 273 c-2 226 0 272 11 272 8
0 112 -31 232 -69z m3357 -83 c3 -46 5 -186 3 -312 l-3 -229 -110 -68 c-60
-37 -113 -68 -117 -69 -5 0 -8 140 -8 310 l0 311 108 69 c59 39 110 70 114 70
3 0 9 -37 13 -82z m-555 -34 c41 -14 92 -29 113 -35 l37 -10 0 -329 c0 -182
-3 -330 -6 -330 -3 0 -68 20 -145 46 l-139 45 0 325 0 326 33 -7 c17 -4 66
-18 107 -31z m2560 -596 l0 -313 -109 -67 c-59 -37 -116 -70 -125 -74 -15 -6
-16 21 -16 308 l0 313 118 73 c64 39 120 72 125 72 4 0 7 -141 7 -312z m-5936
103 c67 -22 129 -43 139 -46 16 -7 17 -32 17 -331 0 -178 -3 -324 -7 -324 -5
0 -70 21 -145 46 l-138 46 0 324 c0 178 3 324 7 324 3 0 61 -18 127 -39z
m5526 -254 l0 -292 -186 -115 c-103 -63 -234 -145 -293 -181 -193 -120 -455
-281 -556 -344 -55 -34 -167 -103 -248 -153 -82 -51 -151 -92 -153 -92 -2 0
-4 132 -4 293 0 268 2 295 18 309 9 8 157 100 327 203 171 104 477 291 680
415 352 216 407 249 413 250 1 0 2 -132 2 -293z m-4902 119 c344 -109 1100
-349 1357 -431 110 -35 380 -120 600 -190 220 -69 421 -133 448 -142 l47 -17
0 -319 0 -319 -27 6 c-16 4 -606 198 -1313 432 -707 234 -1305 432 -1330 440
-25 8 -51 18 -58 23 -10 6 -14 73 -16 304 -3 255 -2 297 11 297 8 0 135 -38
281 -84z m3310 -353 l-3 -317 -110 -68 c-60 -37 -113 -68 -117 -68 -5 0 -8
143 -8 318 l0 317 108 67 c59 37 113 68 120 68 10 0 12 -67 10 -317z m-545
186 l137 -42 0 -323 c0 -282 -2 -324 -15 -324 -8 0 -74 19 -145 42 l-130 42 0
323 c0 178 3 323 8 323 4 0 69 -18 145 -41z m545 -1026 l-3 -288 -109 -67
c-60 -38 -113 -68 -118 -68 -4 0 -8 147 -8 328 l0 327 113 71 112 72 8 -44 c4
-24 6 -173 5 -331z m-540 235 l132 -41 0 -339 c0 -186 -3 -338 -7 -337 -5 0
-69 21 -143 47 l-135 47 -3 333 c-2 262 0 332 10 332 7 0 73 -19 146 -42z"/>
  <path d="M6314 3655 c-32 -32 -31 -88 2 -93 42 -6 82 76 52 106 -17 17 -26 15
-54 -13z"/>
  <path d="M472 3498 c-19 -19 -14 -53 11 -76 26 -25 47 -28 65 -10 19 19 14 53
-11 76 -26 25 -47 28 -65 10z"/>
  <path d="M2902 3377 c-27 -29 -28 -73 -3 -111 41 -62 97 -72 143 -26 26 27 30
36 25 68 -13 80 -115 122 -165 69z"/>
  <path d="M6311 2814 c-26 -33 -25 -87 1 -92 30 -6 70 43 66 81 -4 43 -37 49
-67 11z"/>
  <path d="M467 2673 c-14 -14 -6 -64 13 -83 51 -51 107 7 64 68 -15 21 -62 31
-77 15z"/>
  <path d="M3846 2419 c-34 -49 41 -118 82 -77 19 19 14 47 -13 73 -30 31 -49
32 -69 4z"/>
  <path d="M6311 2024 c-29 -36 -25 -88 5 -92 30 -4 66 43 62 82 -4 42 -38 47
-67 10z"/>
  <path d="M466 1884 c-11 -29 -6 -50 17 -72 26 -25 47 -28 65 -10 17 17 15 49
-4 76 -18 26 -69 30 -78 6z"/>
  <path d="M3846 1594 c-19 -19 -20 -25 -4 -59 13 -29 53 -43 77 -28 26 16 25
50 -3 78 -29 29 -48 31 -70 9z"/>
  <path d="M3840 775 c-29 -35 25 -104 69 -90 52 16 27 105 -28 105 -16 0 -34
-7 -41 -15z"/>
</g>
</svg>
